# xmcd
#
# Track frame offsets:
#	150
#	29913
#	59945
#	87260
#	111413
#	150588
#	173538
#	201315
#	227125
#	250925
#	281433
#
# Disc length: 4357 seconds
#
# Revision: 0
# Processed by: cddbd v1.5.2PL0 Copyright (c) Steve Scherf et al.
# Submitted via: EasyCDDAExtractor 10.0.1.1
#
DISCID=9f11030b
DTITLE=Eric Clapton - The Unreleased LIVE Album
DYEAR=1987
DGENRE=Blues
TTITLE0=Crossroads
TTITLE1=White Room
TTITLE2=Farther On Up The Road
TTITLE3=Farther On Up The Road (Robert Cray)
TTITLE4=Layla
TTITLE5=Hung Up On Your Love
TTITLE6=Holy Mother
TTITLE7=Miss You
TTITLE8=Wonderful Tonight
TTITLE9=Tearing Us Apart
TTITLE10=Badge - Let It Rain
EXTD=
EXTT0=
EXTT1=
EXTT2=
EXTT3=
EXTT4=
EXTT5=
EXTT6=
EXTT7=
EXTT8=
EXTT9=
EXTT10=
PLAYORDER=
